<svg xmlns="http://www.w3.org/2000/svg" viewBox="0 0 120 120" role="img" aria-label="꾸미">
  <defs>
    <linearGradient id="kk" x1="0" y1="0" x2="1" y2="1">
      <stop offset="0" stop-color="#ff7eb6"/><stop offset="1" stop-color="#b388ff"/>
    </linearGradient>
  </defs>
  <path fill="url(#kk)" d="M60 12c8 38 22 52 60 48-38 8-52 22-60 60-8-38-22-52-60-60 38-8 52-22 60-48Z"/>
  <circle cx="48" cy="58" r="5.2" fill="#2a2030"/>
  <circle cx="72" cy="58" r="5.2" fill="#2a2030"/>
  <circle cx="49.6" cy="56" r="1.6" fill="#fff"/>
  <circle cx="73.6" cy="56" r="1.6" fill="#fff"/>
  <circle cx="40" cy="66" r="4" fill="#ff5fa2" opacity=".45"/>
  <circle cx="80" cy="66" r="4" fill="#ff5fa2" opacity=".45"/>
  <path d="M54 67q6 6 12 0" fill="none" stroke="#2a2030" stroke-width="2.4" stroke-linecap="round"/>
  <path fill="#fff" opacity=".9" d="M96 30c1.6 6 3.4 7.8 9 9-5.6 1.6-7.4 3.4-9 9-1.6-5.6-3.4-7.4-9-9 5.6-1.2 7.4-3 9-9Z"/>
</svg>
